<?xml version="1.0" encoding="UTF-8" standalone="no"?>
<!DOCTYPE svg PUBLIC "-//W3C//DTD SVG 1.1//EN" "http://www.w3.org/Graphics/SVG/1.1/DTD/svg11.dtd">
<svg width="100%" height="100%" viewBox="0 0 221 65" version="1.1" xmlns="http://www.w3.org/2000/svg" xmlns:xlink="http://www.w3.org/1999/xlink" xml:space="preserve" xmlns:serif="http://www.serif.com/" style="fill-rule:evenodd;clip-rule:evenodd;stroke-linejoin:round;stroke-miterlimit:2;">
    <g transform="matrix(2.53339,-4.7187e-17,4.7187e-17,2.53339,-182.789,-268.664)">
        <g transform="matrix(22.5533,0,0,22.5533,72.1901,128.062)">
            <path d="M0.788,-0.976C0.837,-0.977 0.875,-0.97 0.901,-0.957C0.926,-0.943 0.944,-0.925 0.953,-0.903C0.962,-0.881 0.963,-0.857 0.959,-0.83C0.954,-0.803 0.945,-0.776 0.934,-0.75C0.923,-0.724 0.91,-0.7 0.895,-0.678C0.88,-0.655 0.867,-0.638 0.856,-0.625C0.849,-0.618 0.842,-0.614 0.835,-0.613C0.828,-0.612 0.821,-0.614 0.816,-0.617C0.81,-0.62 0.806,-0.624 0.804,-0.629C0.802,-0.634 0.803,-0.639 0.807,-0.644C0.816,-0.655 0.825,-0.67 0.836,-0.689C0.846,-0.708 0.855,-0.728 0.863,-0.75C0.871,-0.771 0.877,-0.793 0.88,-0.815C0.883,-0.837 0.882,-0.857 0.877,-0.874C0.871,-0.89 0.86,-0.904 0.843,-0.913C0.826,-0.922 0.801,-0.925 0.769,-0.922C0.739,-0.919 0.703,-0.908 0.66,-0.889C0.616,-0.87 0.571,-0.844 0.523,-0.811C0.475,-0.778 0.426,-0.738 0.377,-0.691C0.328,-0.644 0.282,-0.592 0.239,-0.533C0.196,-0.474 0.159,-0.41 0.127,-0.341C0.095,-0.272 0.072,-0.198 0.059,-0.119C0.058,-0.115 0.058,-0.107 0.058,-0.096C0.058,-0.084 0.059,-0.07 0.062,-0.056C0.065,-0.041 0.069,-0.025 0.076,-0.009C0.083,0.007 0.093,0.021 0.106,0.034C0.118,0.047 0.135,0.056 0.156,0.064C0.176,0.07 0.201,0.073 0.231,0.07C0.264,0.067 0.3,0.055 0.341,0.034C0.382,0.013 0.423,-0.013 0.465,-0.043C0.507,-0.073 0.548,-0.106 0.589,-0.141C0.629,-0.175 0.666,-0.208 0.699,-0.239C0.732,-0.27 0.759,-0.296 0.782,-0.319C0.804,-0.341 0.818,-0.355 0.824,-0.36C0.833,-0.368 0.841,-0.372 0.849,-0.371C0.857,-0.37 0.863,-0.368 0.868,-0.363C0.873,-0.358 0.875,-0.351 0.875,-0.344C0.875,-0.337 0.871,-0.33 0.864,-0.325C0.861,-0.323 0.85,-0.311 0.829,-0.289C0.808,-0.266 0.781,-0.239 0.748,-0.206C0.714,-0.173 0.675,-0.138 0.632,-0.101C0.589,-0.063 0.544,-0.027 0.497,0.006C0.45,0.039 0.402,0.066 0.354,0.089C0.306,0.111 0.261,0.123 0.218,0.125C0.207,0.126 0.193,0.126 0.178,0.125C0.162,0.124 0.146,0.122 0.129,0.118C0.112,0.113 0.096,0.106 0.079,0.096C0.062,0.086 0.048,0.072 0.035,0.054C0.022,0.035 0.013,0.012 0.006,-0.016C-0.001,-0.044 -0.003,-0.078 -0.001,-0.119C0.001,-0.154 0.009,-0.194 0.022,-0.237C0.035,-0.28 0.052,-0.324 0.075,-0.371C0.098,-0.418 0.125,-0.465 0.156,-0.513C0.187,-0.56 0.221,-0.606 0.258,-0.651C0.295,-0.696 0.334,-0.738 0.377,-0.777C0.419,-0.816 0.463,-0.85 0.508,-0.88C0.553,-0.909 0.6,-0.932 0.647,-0.949C0.693,-0.966 0.741,-0.975 0.788,-0.976Z" style="fill:rgb(216,202,59);fill-rule:nonzero;"/>
        </g>
        <g transform="matrix(22.5533,0,0,22.5533,88.1579,128.062)">
            <path d="M0.303,-0.254C0.316,-0.274 0.329,-0.286 0.343,-0.289C0.356,-0.292 0.367,-0.289 0.376,-0.281C0.384,-0.272 0.388,-0.26 0.388,-0.244C0.388,-0.227 0.381,-0.209 0.367,-0.19C0.362,-0.183 0.355,-0.173 0.347,-0.163C0.339,-0.152 0.33,-0.14 0.32,-0.129C0.313,-0.12 0.308,-0.112 0.307,-0.105C0.306,-0.097 0.307,-0.091 0.31,-0.086C0.313,-0.081 0.318,-0.079 0.325,-0.078C0.332,-0.077 0.341,-0.078 0.351,-0.083C0.377,-0.099 0.402,-0.118 0.427,-0.139C0.451,-0.16 0.474,-0.184 0.497,-0.209C0.52,-0.234 0.541,-0.259 0.562,-0.286C0.583,-0.312 0.602,-0.338 0.62,-0.364C0.626,-0.369 0.632,-0.371 0.638,-0.372C0.643,-0.372 0.648,-0.371 0.653,-0.368C0.657,-0.365 0.66,-0.36 0.662,-0.355C0.663,-0.349 0.663,-0.342 0.66,-0.335C0.642,-0.31 0.621,-0.281 0.597,-0.25C0.572,-0.218 0.546,-0.187 0.518,-0.156C0.49,-0.125 0.461,-0.096 0.431,-0.071C0.401,-0.045 0.372,-0.025 0.343,-0.012C0.332,-0.007 0.32,-0.005 0.308,-0.006C0.296,-0.007 0.285,-0.01 0.276,-0.016C0.266,-0.022 0.258,-0.03 0.253,-0.04C0.247,-0.05 0.245,-0.062 0.247,-0.075L0.249,-0.098C0.224,-0.069 0.198,-0.047 0.171,-0.031C0.144,-0.014 0.12,-0.005 0.099,-0.003C0.079,-0.001 0.062,-0.003 0.047,-0.01C0.032,-0.017 0.019,-0.027 0.01,-0.04C0.001,-0.053 -0.006,-0.069 -0.009,-0.087C-0.012,-0.105 -0.013,-0.125 -0.011,-0.146C-0.007,-0.181 0.004,-0.216 0.023,-0.251C0.042,-0.286 0.065,-0.319 0.094,-0.349C0.122,-0.378 0.154,-0.403 0.19,-0.423C0.225,-0.443 0.262,-0.455 0.299,-0.458C0.315,-0.459 0.33,-0.459 0.345,-0.457C0.359,-0.454 0.372,-0.45 0.383,-0.443C0.394,-0.436 0.402,-0.426 0.408,-0.413C0.414,-0.4 0.417,-0.383 0.417,-0.364C0.417,-0.347 0.412,-0.333 0.402,-0.322C0.392,-0.311 0.382,-0.304 0.372,-0.302C0.362,-0.3 0.354,-0.303 0.349,-0.311C0.344,-0.319 0.346,-0.334 0.355,-0.355C0.357,-0.359 0.358,-0.364 0.359,-0.37C0.359,-0.375 0.358,-0.381 0.356,-0.386C0.354,-0.391 0.351,-0.395 0.346,-0.398C0.341,-0.401 0.335,-0.403 0.327,-0.402C0.288,-0.399 0.254,-0.389 0.224,-0.371C0.194,-0.353 0.168,-0.332 0.146,-0.308C0.124,-0.283 0.106,-0.258 0.092,-0.232C0.077,-0.206 0.067,-0.184 0.06,-0.165C0.057,-0.156 0.054,-0.146 0.053,-0.134C0.052,-0.121 0.052,-0.11 0.055,-0.099C0.057,-0.088 0.061,-0.078 0.068,-0.071C0.075,-0.063 0.085,-0.059 0.099,-0.06C0.11,-0.061 0.123,-0.065 0.137,-0.072C0.15,-0.079 0.165,-0.088 0.18,-0.1C0.195,-0.111 0.21,-0.125 0.226,-0.14C0.241,-0.155 0.256,-0.172 0.27,-0.189C0.274,-0.199 0.279,-0.209 0.284,-0.22C0.289,-0.231 0.296,-0.242 0.303,-0.254Z" style="fill:rgb(216,202,59);fill-rule:nonzero;"/>
        </g>
        <g transform="matrix(22.5533,0,0,22.5533,99.412,128.062)">
            <path d="M0.249,-0.545C0.265,-0.556 0.278,-0.561 0.288,-0.56C0.298,-0.559 0.305,-0.554 0.308,-0.547C0.311,-0.539 0.31,-0.53 0.305,-0.519C0.3,-0.508 0.292,-0.499 0.279,-0.49C0.254,-0.474 0.235,-0.455 0.222,-0.434C0.208,-0.412 0.198,-0.388 0.191,-0.363C0.184,-0.337 0.181,-0.31 0.18,-0.281C0.179,-0.252 0.179,-0.222 0.18,-0.192C0.215,-0.213 0.255,-0.237 0.3,-0.264C0.344,-0.291 0.394,-0.324 0.451,-0.364C0.455,-0.367 0.46,-0.367 0.465,-0.366C0.47,-0.364 0.474,-0.361 0.477,-0.357C0.48,-0.353 0.481,-0.348 0.481,-0.343C0.481,-0.338 0.478,-0.333 0.473,-0.328C0.422,-0.285 0.371,-0.248 0.321,-0.217C0.27,-0.186 0.224,-0.156 0.182,-0.129C0.183,-0.101 0.184,-0.074 0.184,-0.047C0.184,-0.02 0.182,0.007 0.179,0.032C0.176,0.059 0.167,0.081 0.154,0.1C0.141,0.119 0.125,0.133 0.108,0.143C0.091,0.153 0.073,0.159 0.054,0.16C0.035,0.161 0.018,0.158 0.003,0.151C-0.012,0.144 -0.025,0.132 -0.034,0.116C-0.043,0.1 -0.045,0.08 -0.042,0.055C-0.039,0.029 -0.034,0.007 -0.027,-0.013C-0.02,-0.032 -0.01,-0.049 0.002,-0.065C0.014,-0.08 0.029,-0.095 0.047,-0.108C0.064,-0.121 0.085,-0.135 0.108,-0.15C0.106,-0.185 0.105,-0.22 0.106,-0.256C0.106,-0.292 0.11,-0.327 0.119,-0.362C0.127,-0.396 0.141,-0.429 0.162,-0.46C0.182,-0.491 0.211,-0.52 0.249,-0.545ZM0.11,0.028C0.112,0.011 0.113,-0.006 0.114,-0.024C0.114,-0.041 0.113,-0.06 0.112,-0.079C0.091,-0.062 0.072,-0.044 0.057,-0.025C0.041,-0.006 0.029,0.015 0.022,0.036C0.015,0.057 0.016,0.072 0.023,0.08C0.03,0.088 0.04,0.091 0.053,0.089C0.065,0.086 0.077,0.08 0.089,0.069C0.101,0.058 0.108,0.044 0.11,0.028Z" style="fill:rgb(216,202,59);fill-rule:nonzero;"/>
        </g>
        <g transform="matrix(22.5533,0,0,22.5533,106.607,128.062)">
            <path d="M0.479,-0.44C0.49,-0.441 0.498,-0.44 0.504,-0.438C0.51,-0.435 0.514,-0.431 0.517,-0.426C0.519,-0.42 0.52,-0.415 0.52,-0.409C0.52,-0.402 0.52,-0.396 0.519,-0.391C0.518,-0.382 0.513,-0.368 0.505,-0.351C0.496,-0.333 0.486,-0.313 0.475,-0.291C0.463,-0.269 0.451,-0.246 0.438,-0.223C0.424,-0.199 0.413,-0.177 0.402,-0.156C0.391,-0.135 0.381,-0.118 0.374,-0.103C0.367,-0.088 0.363,-0.078 0.364,-0.073C0.364,-0.066 0.365,-0.061 0.368,-0.06C0.371,-0.059 0.374,-0.059 0.377,-0.06C0.38,-0.061 0.384,-0.062 0.387,-0.065C0.39,-0.067 0.392,-0.069 0.394,-0.07C0.411,-0.081 0.428,-0.096 0.448,-0.114C0.467,-0.131 0.486,-0.15 0.505,-0.17C0.524,-0.19 0.543,-0.21 0.562,-0.231C0.58,-0.252 0.596,-0.271 0.611,-0.288C0.626,-0.305 0.638,-0.32 0.648,-0.333C0.658,-0.345 0.664,-0.353 0.667,-0.357C0.674,-0.366 0.682,-0.371 0.689,-0.373C0.696,-0.374 0.701,-0.374 0.706,-0.371C0.71,-0.368 0.712,-0.363 0.713,-0.356C0.714,-0.349 0.711,-0.342 0.706,-0.335C0.704,-0.332 0.698,-0.325 0.688,-0.312C0.678,-0.299 0.665,-0.282 0.65,-0.264C0.634,-0.245 0.616,-0.224 0.596,-0.201C0.576,-0.178 0.555,-0.155 0.534,-0.132C0.512,-0.109 0.49,-0.087 0.469,-0.066C0.448,-0.045 0.428,-0.028 0.409,-0.014C0.398,-0.006 0.385,0 0.372,0.004C0.358,0.008 0.345,0.009 0.334,0.007C0.323,0.004 0.313,-0.002 0.306,-0.011C0.298,-0.02 0.295,-0.034 0.296,-0.053C0.297,-0.066 0.301,-0.082 0.308,-0.1C0.315,-0.118 0.323,-0.136 0.334,-0.156C0.344,-0.174 0.355,-0.194 0.367,-0.214C0.378,-0.233 0.39,-0.252 0.401,-0.269C0.411,-0.286 0.421,-0.302 0.43,-0.316C0.438,-0.33 0.443,-0.341 0.446,-0.349C0.449,-0.356 0.449,-0.359 0.446,-0.36C0.442,-0.361 0.438,-0.36 0.434,-0.357C0.425,-0.352 0.41,-0.341 0.391,-0.325C0.371,-0.309 0.349,-0.29 0.324,-0.268C0.299,-0.246 0.274,-0.222 0.247,-0.197C0.22,-0.172 0.194,-0.148 0.17,-0.125C0.145,-0.101 0.123,-0.081 0.104,-0.063C0.085,-0.045 0.071,-0.032 0.062,-0.024C0.059,-0.019 0.056,-0.016 0.053,-0.014C0.05,-0.013 0.046,-0.013 0.04,-0.015C0.033,-0.016 0.029,-0.019 0.026,-0.022C0.017,-0.033 0.016,-0.055 0.022,-0.089C0.028,-0.122 0.039,-0.161 0.056,-0.207C0.073,-0.253 0.094,-0.304 0.121,-0.359C0.147,-0.413 0.176,-0.469 0.208,-0.525C0.24,-0.58 0.274,-0.634 0.311,-0.687C0.347,-0.74 0.384,-0.786 0.421,-0.827C0.458,-0.868 0.494,-0.901 0.53,-0.926C0.566,-0.95 0.6,-0.964 0.632,-0.965C0.657,-0.966 0.676,-0.959 0.688,-0.947C0.7,-0.934 0.706,-0.919 0.705,-0.902C0.704,-0.875 0.694,-0.845 0.675,-0.812C0.656,-0.779 0.632,-0.745 0.603,-0.712C0.574,-0.678 0.543,-0.645 0.51,-0.614C0.476,-0.582 0.444,-0.553 0.413,-0.528C0.382,-0.502 0.355,-0.481 0.332,-0.464C0.309,-0.447 0.293,-0.436 0.286,-0.432C0.273,-0.425 0.262,-0.421 0.254,-0.422C0.245,-0.423 0.239,-0.425 0.236,-0.43C0.206,-0.378 0.179,-0.326 0.154,-0.274C0.129,-0.221 0.11,-0.171 0.095,-0.123C0.11,-0.139 0.128,-0.158 0.15,-0.179C0.171,-0.2 0.194,-0.223 0.219,-0.246C0.244,-0.269 0.269,-0.291 0.295,-0.314C0.32,-0.337 0.345,-0.357 0.368,-0.376C0.391,-0.394 0.413,-0.409 0.432,-0.421C0.451,-0.432 0.467,-0.439 0.479,-0.44ZM0.62,-0.916C0.611,-0.915 0.594,-0.903 0.569,-0.879C0.544,-0.855 0.516,-0.823 0.483,-0.784C0.45,-0.744 0.414,-0.698 0.377,-0.646C0.339,-0.593 0.302,-0.538 0.267,-0.48C0.28,-0.49 0.299,-0.504 0.322,-0.523C0.345,-0.541 0.371,-0.562 0.398,-0.585C0.425,-0.608 0.452,-0.634 0.481,-0.661C0.509,-0.688 0.535,-0.715 0.559,-0.742C0.582,-0.769 0.602,-0.795 0.618,-0.821C0.634,-0.846 0.643,-0.87 0.646,-0.891C0.648,-0.908 0.639,-0.917 0.62,-0.916Z" style="fill:rgb(216,202,59);fill-rule:nonzero;"/>
        </g>
        <g transform="matrix(22.5533,0,0,22.5533,119.079,128.062)">
            <path d="M0.355,-0.446C0.366,-0.445 0.373,-0.44 0.374,-0.433C0.375,-0.426 0.374,-0.418 0.371,-0.409C0.382,-0.408 0.392,-0.404 0.401,-0.399C0.41,-0.394 0.415,-0.386 0.418,-0.375C0.421,-0.362 0.421,-0.342 0.416,-0.316C0.411,-0.289 0.401,-0.261 0.387,-0.23C0.404,-0.235 0.421,-0.241 0.44,-0.249C0.458,-0.257 0.476,-0.267 0.494,-0.28C0.511,-0.292 0.528,-0.306 0.545,-0.323C0.561,-0.339 0.576,-0.358 0.589,-0.379C0.596,-0.39 0.603,-0.397 0.61,-0.399C0.617,-0.4 0.624,-0.399 0.629,-0.395C0.634,-0.391 0.638,-0.385 0.64,-0.378C0.642,-0.37 0.641,-0.362 0.637,-0.355C0.622,-0.328 0.603,-0.303 0.58,-0.281C0.557,-0.258 0.532,-0.239 0.506,-0.223C0.479,-0.207 0.452,-0.194 0.426,-0.185C0.399,-0.175 0.374,-0.169 0.351,-0.167C0.339,-0.15 0.326,-0.134 0.311,-0.119C0.296,-0.103 0.279,-0.091 0.26,-0.08C0.241,-0.069 0.221,-0.06 0.2,-0.054C0.178,-0.048 0.155,-0.046 0.13,-0.047C0.119,-0.048 0.107,-0.05 0.096,-0.054C0.084,-0.057 0.073,-0.063 0.063,-0.07C0.052,-0.077 0.043,-0.087 0.035,-0.098C0.027,-0.109 0.021,-0.123 0.018,-0.139C0.014,-0.156 0.014,-0.176 0.019,-0.199C0.023,-0.222 0.031,-0.245 0.043,-0.269C0.055,-0.293 0.071,-0.316 0.09,-0.339C0.109,-0.362 0.132,-0.382 0.159,-0.399C0.185,-0.416 0.214,-0.428 0.247,-0.438C0.28,-0.447 0.316,-0.449 0.355,-0.446ZM0.283,-0.174C0.26,-0.181 0.243,-0.193 0.231,-0.209C0.218,-0.225 0.211,-0.243 0.208,-0.262C0.205,-0.28 0.206,-0.3 0.211,-0.319C0.216,-0.338 0.225,-0.355 0.238,-0.37C0.207,-0.359 0.18,-0.342 0.159,-0.321C0.137,-0.3 0.12,-0.278 0.107,-0.255C0.094,-0.232 0.086,-0.21 0.082,-0.189C0.078,-0.168 0.078,-0.153 0.081,-0.144C0.085,-0.133 0.09,-0.124 0.097,-0.118C0.103,-0.112 0.11,-0.108 0.118,-0.105C0.125,-0.102 0.133,-0.101 0.142,-0.101C0.15,-0.101 0.158,-0.102 0.166,-0.103C0.191,-0.106 0.214,-0.115 0.233,-0.128C0.252,-0.141 0.268,-0.157 0.283,-0.174ZM0.326,-0.36C0.309,-0.359 0.296,-0.351 0.286,-0.338C0.276,-0.324 0.27,-0.309 0.268,-0.293C0.266,-0.277 0.269,-0.262 0.276,-0.248C0.283,-0.234 0.296,-0.226 0.314,-0.223C0.329,-0.251 0.339,-0.276 0.345,-0.298C0.351,-0.32 0.354,-0.332 0.354,-0.335C0.352,-0.343 0.348,-0.349 0.343,-0.355C0.337,-0.36 0.331,-0.361 0.326,-0.36Z" style="fill:rgb(216,202,59);fill-rule:nonzero;"/>
        </g>
        <g transform="matrix(22.5533,0,0,22.5533,129.543,128.062)">
            <path d="M0.381,-0.401C0.394,-0.421 0.407,-0.433 0.42,-0.437C0.432,-0.44 0.443,-0.439 0.45,-0.432C0.457,-0.424 0.461,-0.413 0.46,-0.398C0.459,-0.383 0.452,-0.365 0.438,-0.346C0.436,-0.343 0.431,-0.336 0.423,-0.324C0.414,-0.311 0.404,-0.296 0.393,-0.279C0.382,-0.262 0.37,-0.243 0.357,-0.223C0.343,-0.202 0.331,-0.183 0.32,-0.164C0.308,-0.145 0.298,-0.129 0.29,-0.115C0.282,-0.101 0.277,-0.092 0.276,-0.087C0.273,-0.08 0.271,-0.072 0.27,-0.064C0.268,-0.055 0.268,-0.048 0.269,-0.041C0.27,-0.034 0.273,-0.029 0.278,-0.027C0.283,-0.023 0.29,-0.024 0.3,-0.027C0.326,-0.038 0.353,-0.057 0.381,-0.084C0.408,-0.111 0.435,-0.141 0.462,-0.174C0.489,-0.207 0.514,-0.241 0.539,-0.276C0.563,-0.31 0.585,-0.339 0.604,-0.364C0.609,-0.369 0.615,-0.371 0.622,-0.371C0.629,-0.371 0.634,-0.369 0.639,-0.366C0.643,-0.363 0.646,-0.358 0.648,-0.353C0.649,-0.347 0.648,-0.341 0.643,-0.335C0.631,-0.318 0.616,-0.298 0.6,-0.273C0.583,-0.248 0.564,-0.221 0.544,-0.194C0.524,-0.166 0.503,-0.138 0.48,-0.111C0.457,-0.083 0.434,-0.058 0.411,-0.037C0.387,-0.015 0.363,0.003 0.34,0.017C0.316,0.03 0.293,0.037 0.27,0.036C0.251,0.035 0.235,0.029 0.221,0.016C0.206,0.003 0.2,-0.013 0.202,-0.034C0.204,-0.052 0.212,-0.078 0.227,-0.111C0.213,-0.096 0.199,-0.083 0.184,-0.07C0.169,-0.057 0.155,-0.046 0.14,-0.037C0.125,-0.028 0.109,-0.02 0.094,-0.015C0.079,-0.01 0.064,-0.007 0.049,-0.008C0.03,-0.009 0.014,-0.015 -0.001,-0.028C-0.015,-0.041 -0.021,-0.057 -0.019,-0.078C-0.018,-0.09 -0.014,-0.104 -0.009,-0.121C-0.003,-0.138 0.004,-0.156 0.012,-0.175C0.02,-0.194 0.029,-0.214 0.039,-0.234C0.049,-0.254 0.059,-0.273 0.069,-0.292C0.079,-0.311 0.089,-0.328 0.098,-0.344C0.107,-0.359 0.114,-0.372 0.121,-0.383C0.134,-0.403 0.147,-0.415 0.16,-0.419C0.173,-0.423 0.184,-0.422 0.191,-0.415C0.198,-0.408 0.202,-0.396 0.201,-0.381C0.2,-0.365 0.193,-0.347 0.179,-0.328C0.177,-0.325 0.173,-0.32 0.167,-0.311C0.16,-0.302 0.153,-0.291 0.144,-0.278C0.135,-0.265 0.126,-0.251 0.117,-0.236C0.107,-0.221 0.098,-0.206 0.089,-0.192C0.08,-0.178 0.073,-0.166 0.067,-0.155C0.06,-0.143 0.056,-0.136 0.055,-0.131C0.052,-0.124 0.05,-0.116 0.049,-0.108C0.047,-0.099 0.047,-0.092 0.048,-0.085C0.049,-0.078 0.051,-0.074 0.056,-0.071C0.061,-0.068 0.068,-0.068 0.078,-0.071C0.104,-0.082 0.13,-0.098 0.155,-0.121C0.18,-0.143 0.205,-0.168 0.228,-0.196C0.251,-0.224 0.274,-0.253 0.296,-0.283C0.318,-0.312 0.339,-0.339 0.358,-0.364C0.358,-0.364 0.359,-0.364 0.36,-0.365C0.368,-0.38 0.375,-0.392 0.381,-0.401Z" style="fill:rgb(216,202,59);fill-rule:nonzero;"/>
        </g>
        <g transform="matrix(22.5533,0,0,22.5533,140.549,128.062)">
            <path d="M0.242,-0.681C0.235,-0.682 0.23,-0.685 0.228,-0.691C0.225,-0.697 0.225,-0.704 0.227,-0.711C0.229,-0.717 0.233,-0.724 0.238,-0.73C0.243,-0.735 0.25,-0.738 0.257,-0.738L0.367,-0.738C0.39,-0.768 0.412,-0.797 0.435,-0.826C0.457,-0.854 0.479,-0.881 0.5,-0.908C0.507,-0.914 0.515,-0.918 0.522,-0.919C0.529,-0.92 0.535,-0.919 0.54,-0.916C0.545,-0.913 0.548,-0.908 0.549,-0.902C0.55,-0.895 0.549,-0.887 0.544,-0.877C0.527,-0.852 0.511,-0.829 0.495,-0.806C0.479,-0.783 0.463,-0.761 0.448,-0.74C0.511,-0.741 0.574,-0.743 0.637,-0.746C0.7,-0.748 0.761,-0.75 0.822,-0.753C0.828,-0.751 0.832,-0.747 0.833,-0.74C0.834,-0.733 0.834,-0.726 0.833,-0.719C0.831,-0.712 0.828,-0.705 0.823,-0.699C0.818,-0.692 0.813,-0.688 0.807,-0.687C0.744,-0.687 0.679,-0.687 0.611,-0.686C0.542,-0.685 0.474,-0.683 0.406,-0.682C0.368,-0.631 0.333,-0.582 0.3,-0.536C0.267,-0.49 0.237,-0.445 0.21,-0.4C0.183,-0.355 0.159,-0.309 0.138,-0.263C0.117,-0.217 0.101,-0.168 0.089,-0.116C0.083,-0.092 0.083,-0.071 0.089,-0.055C0.095,-0.038 0.108,-0.027 0.128,-0.024C0.137,-0.023 0.147,-0.024 0.158,-0.03C0.169,-0.034 0.178,-0.04 0.186,-0.045C0.194,-0.05 0.209,-0.06 0.23,-0.076C0.251,-0.091 0.276,-0.112 0.305,-0.138C0.334,-0.163 0.365,-0.194 0.399,-0.23C0.432,-0.265 0.465,-0.305 0.497,-0.35C0.503,-0.359 0.51,-0.364 0.517,-0.366C0.524,-0.367 0.531,-0.366 0.536,-0.363C0.541,-0.36 0.544,-0.354 0.545,-0.347C0.546,-0.34 0.544,-0.332 0.538,-0.323C0.512,-0.288 0.482,-0.251 0.449,-0.21C0.416,-0.168 0.381,-0.13 0.345,-0.095C0.308,-0.059 0.271,-0.029 0.234,-0.005C0.196,0.019 0.16,0.031 0.125,0.032C0.103,0.033 0.084,0.029 0.069,0.021C0.054,0.013 0.042,0.002 0.034,-0.011C0.025,-0.024 0.02,-0.04 0.017,-0.057C0.014,-0.074 0.015,-0.092 0.018,-0.11C0.025,-0.153 0.039,-0.198 0.058,-0.245C0.077,-0.292 0.101,-0.339 0.128,-0.388C0.155,-0.437 0.186,-0.486 0.219,-0.535C0.252,-0.584 0.287,-0.633 0.323,-0.681L0.242,-0.681Z" style="fill:rgb(216,202,59);fill-rule:nonzero;"/>
        </g>
    </g>
</svg>
