<?xml version="1.0" encoding="UTF-8" standalone="no"?>
<!DOCTYPE svg PUBLIC "-//W3C//DTD SVG 1.1//EN" "http://www.w3.org/Graphics/SVG/1.1/DTD/svg11.dtd">
<svg width="100%" height="100%" viewBox="0 0 221 72" version="1.1" xmlns="http://www.w3.org/2000/svg" xmlns:xlink="http://www.w3.org/1999/xlink" xml:space="preserve" xmlns:serif="http://www.serif.com/" style="fill-rule:evenodd;clip-rule:evenodd;stroke-linejoin:round;stroke-miterlimit:2;">
    <g id="logo" transform="matrix(1,0,0,1,-1255.54,-75.3006)">
        <path d="M1335.29,146.929L1330.94,135.796L1326.17,146.981L1318.75,127.549L1321.66,127.549L1326.48,141.105L1329.7,132.652L1327.72,127.549L1330.19,127.549L1335.37,140.821L1339.96,127.549L1342.64,127.549L1335.29,146.929ZM1418.46,146.104L1415.93,146.104L1415.93,126.905L1416.06,126.905L1429.72,140.95L1429.67,127.472L1432.17,127.472L1432.17,146.723L1432.09,146.723L1418.4,132.832L1418.46,146.104ZM1310.89,130.797C1310.22,130.436 1309.51,130.144 1308.75,129.92C1308,129.697 1307.28,129.585 1306.61,129.585C1305.6,129.585 1304.8,129.813 1304.2,130.268C1303.61,130.724 1303.31,131.346 1303.31,132.137C1303.31,132.91 1303.66,133.541 1304.36,134.031C1305.05,134.52 1306.05,135.006 1307.33,135.487C1308.3,135.83 1309.11,136.204 1309.77,136.608C1310.43,137.012 1310.98,137.57 1311.42,138.283C1311.86,138.996 1312.08,139.902 1312.08,141.002C1312.08,141.998 1311.83,142.9 1311.33,143.708C1310.83,144.515 1310.12,145.151 1309.2,145.615C1308.28,146.079 1307.2,146.31 1305.97,146.31C1304.82,146.31 1303.71,146.126 1302.64,145.756C1301.58,145.387 1300.64,144.919 1299.83,144.352L1300.94,142.368C1301.58,142.849 1302.34,143.257 1303.24,143.592C1304.13,143.927 1304.96,144.094 1305.74,144.094C1306.73,144.094 1307.6,143.836 1308.35,143.321C1309.1,142.806 1309.47,142.041 1309.47,141.028C1309.47,140.168 1309.16,139.486 1308.53,138.979C1307.9,138.472 1307.02,137.995 1305.89,137.548C1304.84,137.153 1303.97,136.767 1303.27,136.389C1302.58,136.011 1301.98,135.491 1301.48,134.83C1300.99,134.168 1300.74,133.339 1300.74,132.343C1300.74,130.882 1301.25,129.701 1302.27,128.799C1303.29,127.897 1304.62,127.421 1306.25,127.369C1308.26,127.369 1310.12,127.867 1311.84,128.864L1310.89,130.797ZM1362.59,129.869L1352.97,129.869L1352.97,135.538L1361.56,135.538L1361.56,137.935L1352.97,137.935L1352.97,143.682L1362.95,143.682L1362.95,146.104L1350.47,146.104L1350.47,127.472L1362.59,127.472L1362.59,129.869ZM1407.09,129.869L1397.48,129.869L1397.48,135.538L1406.06,135.538L1406.06,137.935L1397.48,137.935L1397.48,143.682L1407.45,143.682L1407.45,146.104L1394.98,146.104L1394.98,127.472L1407.09,127.472L1407.09,129.869ZM1377.43,146.104L1371.42,146.104L1371.42,127.472L1376.53,127.472C1378.85,127.472 1380.77,127.932 1382.29,128.851C1383.81,129.77 1384.92,130.955 1385.61,132.407C1386.31,133.859 1386.65,135.392 1386.65,137.007C1386.65,138.811 1386.23,140.405 1385.39,141.788C1384.55,143.171 1383.42,144.236 1382.02,144.983C1380.61,145.731 1379.08,146.104 1377.43,146.104ZM1377.17,129.869L1373.92,129.869L1373.92,143.682L1376.94,143.682C1378.31,143.682 1379.54,143.411 1380.62,142.87C1381.71,142.329 1382.55,141.543 1383.16,140.512C1383.77,139.481 1384.08,138.253 1384.08,136.827C1384.08,135.367 1383.76,134.112 1383.12,133.064C1382.49,132.016 1381.64,131.222 1380.59,130.681C1379.53,130.139 1378.39,129.869 1377.17,129.869ZM1431.67,113.118C1430.63,113.967 1428.99,114.816 1426.74,115.665C1424.49,116.514 1422.03,116.938 1419.38,116.938C1415.13,116.938 1411.44,116.016 1408.3,114.17C1405.16,112.324 1402.76,109.842 1401.1,106.723C1399.44,103.604 1398.61,100.18 1398.61,96.452C1398.61,92.354 1399.44,88.7 1401.1,85.489C1402.76,82.277 1405.09,79.776 1408.08,77.986C1411.07,76.196 1414.52,75.301 1418.43,75.301C1420.91,75.301 1423.2,75.633 1425.3,76.297C1427.4,76.962 1429.25,77.792 1430.84,78.789L1427.68,86.374C1424.77,84.16 1421.78,83.052 1418.71,83.052C1416.64,83.052 1414.71,83.624 1412.9,84.769C1411.09,85.913 1409.65,87.473 1408.58,89.447C1407.51,91.422 1406.97,93.609 1406.97,96.009C1406.97,98.63 1407.47,100.927 1408.47,102.902C1409.46,104.877 1410.88,106.418 1412.73,107.526C1414.58,108.633 1416.74,109.187 1419.21,109.187C1421.2,109.187 1422.99,108.864 1424.58,108.218C1426.17,107.572 1427.42,106.806 1428.35,105.92L1431.67,113.118ZM1344.58,116.495L1310.88,116.495L1310.88,108.55L1344.58,108.55L1344.58,116.495ZM1367.62,116.495L1359.59,116.495L1359.59,75.744L1371.94,75.744C1377,75.744 1380.92,76.971 1383.71,79.426C1386.49,81.88 1387.89,85.23 1387.89,89.475C1387.89,91.985 1387.36,94.338 1386.31,96.535C1385.26,98.731 1383.64,100.457 1381.46,101.712L1390.93,116.495L1381.57,116.495L1372.99,103.539L1367.62,103.539L1367.62,116.495ZM1450.22,116.495L1442.19,116.495L1442.19,75.744L1450.22,75.744L1450.22,92.188L1468.43,92.188L1468.43,75.744L1476.46,75.744L1476.46,116.495L1468.43,116.495L1468.43,99.94L1450.22,99.94L1450.22,116.495ZM1262.99,116.495L1255.54,116.495L1255.54,75.744L1255.59,75.744L1275.44,103.887L1295.76,75.744L1295.87,75.744L1295.87,116.495L1288.15,116.495L1288.15,97.822L1275.38,115.963L1275.28,115.963L1262.99,98.992L1262.99,116.495ZM1344.58,100.177L1310.88,100.177L1310.88,92.231L1344.58,92.231L1344.58,100.177ZM1373.38,83.495L1367.62,83.495L1367.62,95.787L1373.32,95.787C1375.5,95.787 1377.09,95.151 1378.09,93.877C1379.08,92.604 1379.58,91.229 1379.58,89.752C1379.58,88.275 1379.16,86.864 1378.31,85.516C1377.46,84.169 1375.82,83.495 1373.38,83.495ZM1344.58,83.779L1310.88,83.779L1310.88,75.834L1344.58,75.834L1344.58,83.779Z" style="fill:rgb(46,46,46);"/>
    </g>
</svg>
